<?xml version="1.0" encoding="UTF-8" standalone="no"?>
<!DOCTYPE svg PUBLIC "-//W3C//DTD SVG 1.1//EN"
 "http://www.w3.org/Graphics/SVG/1.1/DTD/svg11.dtd">
<!-- Generated by graphviz version 7.0.1 (20221109.1506)
 -->
<!-- Pages: 1 -->
<svg width="949pt" height="404pt"
 viewBox="0.00 0.00 948.73 404.00" xmlns="http://www.w3.org/2000/svg" xmlns:xlink="http://www.w3.org/1999/xlink">
<g id="graph0" class="graph" transform="scale(1 1) rotate(0) translate(4 400)">
<polygon fill="white" stroke="none" points="-4,4 -4,-400 944.73,-400 944.73,4 -4,4"/>
<!-- [root] google_container_cluster.primary (expand) -->
<g id="node1" class="node">
<title>[root] google_container_cluster.primary (expand)</title>
<polygon fill="none" stroke="black" points="495.5,-180 295.5,-180 295.5,-144 495.5,-144 495.5,-180"/>
<text text-anchor="middle" x="395.5" y="-158.3" font-family="Times,serif" font-size="14.00">google_container_cluster.primary</text>
</g>
<!-- [root] google_project_iam_member.serviceUsage (expand) -->
<g id="node3" class="node">
<title>[root] google_project_iam_member.serviceUsage (expand)</title>
<polygon fill="none" stroke="black" points="522,-108 269,-108 269,-72 522,-72 522,-108"/>
<text text-anchor="middle" x="395.5" y="-86.3" font-family="Times,serif" font-size="14.00">google_project_iam_member.serviceUsage</text>
</g>
<!-- [root] google_container_cluster.primary (expand)&#45;&gt;[root] google_project_iam_member.serviceUsage (expand) -->
<g id="edge1" class="edge">
<title>[root] google_container_cluster.primary (expand)&#45;&gt;[root] google_project_iam_member.serviceUsage (expand)</title>
<path fill="none" stroke="black" d="M395.5,-143.7C395.5,-136.41 395.5,-127.73 395.5,-119.54"/>
<polygon fill="black" stroke="black" points="399,-119.62 395.5,-109.62 392,-119.62 399,-119.62"/>
</g>
<!-- [root] google_project_service.gke&#45;service (expand) -->
<g id="node4" class="node">
<title>[root] google_project_service.gke&#45;service (expand)</title>
<polygon fill="none" stroke="black" points="251,-108 42,-108 42,-72 251,-72 251,-108"/>
<text text-anchor="middle" x="146.5" y="-86.3" font-family="Times,serif" font-size="14.00">google_project_service.gke&#45;service</text>
</g>
<!-- [root] google_container_cluster.primary (expand)&#45;&gt;[root] google_project_service.gke&#45;service (expand) -->
<g id="edge2" class="edge">
<title>[root] google_container_cluster.primary (expand)&#45;&gt;[root] google_project_service.gke&#45;service (expand)</title>
<path fill="none" stroke="black" d="M333.31,-143.52C298.72,-133.79 255.47,-121.64 219.31,-111.47"/>
<polygon fill="black" stroke="black" points="220.36,-108.13 209.79,-108.79 218.47,-114.87 220.36,-108.13"/>
</g>
<!-- [root] var.region -->
<g id="node10" class="node">
<title>[root] var.region</title>
<polygon fill="none" stroke="black" points="605,-108 540,-108 540,-72 611,-72 611,-102 605,-108"/>
<polyline fill="none" stroke="black" points="605,-108 605,-102"/>
<polyline fill="none" stroke="black" points="611,-102 605,-102"/>
<text text-anchor="middle" x="575.5" y="-86.3" font-family="Times,serif" font-size="14.00">var.region</text>
</g>
<!-- [root] google_container_cluster.primary (expand)&#45;&gt;[root] var.region -->
<g id="edge3" class="edge">
<title>[root] google_container_cluster.primary (expand)&#45;&gt;[root] var.region</title>
<path fill="none" stroke="black" d="M440.46,-143.52C467.48,-133.01 501.81,-119.66 529.09,-109.05"/>
<polygon fill="black" stroke="black" points="530.09,-112.41 538.14,-105.53 527.55,-105.89 530.09,-112.41"/>
</g>
<!-- [root] google_container_node_pool.primary_preemptible_nodes (expand) -->
<g id="node2" class="node">
<title>[root] google_container_node_pool.primary_preemptible_nodes (expand)</title>
<polygon fill="none" stroke="black" points="912.5,-252 580.5,-252 580.5,-216 912.5,-216 912.5,-252"/>
<text text-anchor="middle" x="746.5" y="-230.3" font-family="Times,serif" font-size="14.00">google_container_node_pool.primary_preemptible_nodes</text>
</g>
<!-- [root] google_container_node_pool.primary_preemptible_nodes (expand)&#45;&gt;[root] google_container_cluster.primary (expand) -->
<g id="edge4" class="edge">
<title>[root] google_container_node_pool.primary_preemptible_nodes (expand)&#45;&gt;[root] google_container_cluster.primary (expand)</title>
<path fill="none" stroke="black" d="M658.83,-215.52C608.8,-205.54 545.93,-193 494.17,-182.68"/>
<polygon fill="black" stroke="black" points="494.94,-179.26 484.45,-180.74 493.57,-186.13 494.94,-179.26"/>
</g>
<!-- [root] var.machine_type -->
<g id="node6" class="node">
<title>[root] var.machine_type</title>
<polygon fill="none" stroke="black" points="657,-180 550,-180 550,-144 663,-144 663,-174 657,-180"/>
<polyline fill="none" stroke="black" points="657,-180 657,-174"/>
<polyline fill="none" stroke="black" points="663,-174 657,-174"/>
<text text-anchor="middle" x="606.5" y="-158.3" font-family="Times,serif" font-size="14.00">var.machine_type</text>
</g>
<!-- [root] google_container_node_pool.primary_preemptible_nodes (expand)&#45;&gt;[root] var.machine_type -->
<g id="edge5" class="edge">
<title>[root] google_container_node_pool.primary_preemptible_nodes (expand)&#45;&gt;[root] var.machine_type</title>
<path fill="none" stroke="black" d="M711.53,-215.52C693.27,-206.39 670.72,-195.11 651.21,-185.35"/>
<polygon fill="black" stroke="black" points="652.88,-182.28 642.37,-180.94 649.75,-188.54 652.88,-182.28"/>
</g>
<!-- [root] var.max_node_count -->
<g id="node7" class="node">
<title>[root] var.max_node_count</title>
<polygon fill="none" stroke="black" points="806,-180 681,-180 681,-144 812,-144 812,-174 806,-180"/>
<polyline fill="none" stroke="black" points="806,-180 806,-174"/>
<polyline fill="none" stroke="black" points="812,-174 806,-174"/>
<text text-anchor="middle" x="746.5" y="-158.3" font-family="Times,serif" font-size="14.00">var.max_node_count</text>
</g>
<!-- [root] google_container_node_pool.primary_preemptible_nodes (expand)&#45;&gt;[root] var.max_node_count -->
<g id="edge6" class="edge">
<title>[root] google_container_node_pool.primary_preemptible_nodes (expand)&#45;&gt;[root] var.max_node_count</title>
<path fill="none" stroke="black" d="M746.5,-215.7C746.5,-208.41 746.5,-199.73 746.5,-191.54"/>
<polygon fill="black" stroke="black" points="750,-191.62 746.5,-181.62 743,-191.62 750,-191.62"/>
</g>
<!-- [root] var.preemptible -->
<g id="node8" class="node">
<title>[root] var.preemptible</title>
<polygon fill="none" stroke="black" points="926.5,-180 830.5,-180 830.5,-144 932.5,-144 932.5,-174 926.5,-180"/>
<polyline fill="none" stroke="black" points="926.5,-180 926.5,-174"/>
<polyline fill="none" stroke="black" points="932.5,-174 926.5,-174"/>
<text text-anchor="middle" x="881.5" y="-158.3" font-family="Times,serif" font-size="14.00">var.preemptible</text>
</g>
<!-- [root] google_container_node_pool.primary_preemptible_nodes (expand)&#45;&gt;[root] var.preemptible -->
<g id="edge7" class="edge">
<title>[root] google_container_node_pool.primary_preemptible_nodes (expand)&#45;&gt;[root] var.preemptible</title>
<path fill="none" stroke="black" d="M780.22,-215.52C797.75,-206.43 819.37,-195.22 838.13,-185.49"/>
<polygon fill="black" stroke="black" points="839.6,-188.67 846.87,-180.96 836.38,-182.45 839.6,-188.67"/>
</g>
<!-- [root] provider[&quot;registry.terraform.io/hashicorp/google&quot;] -->
<g id="node5" class="node">
<title>[root] provider[&quot;registry.terraform.io/hashicorp/google&quot;]</title>
<polygon fill="none" stroke="black" points="395.5,-36 128.89,-18 395.5,0 662.11,-18 395.5,-36"/>
<text text-anchor="middle" x="395.5" y="-14.3" font-family="Times,serif" font-size="14.00">provider[&quot;registry.terraform.io/hashicorp/google&quot;]</text>
</g>
<!-- [root] google_project_iam_member.serviceUsage (expand)&#45;&gt;[root] provider[&quot;registry.terraform.io/hashicorp/google&quot;] -->
<g id="edge8" class="edge">
<title>[root] google_project_iam_member.serviceUsage (expand)&#45;&gt;[root] provider[&quot;registry.terraform.io/hashicorp/google&quot;]</title>
<path fill="none" stroke="black" d="M395.5,-71.7C395.5,-64.41 395.5,-55.73 395.5,-47.54"/>
<polygon fill="black" stroke="black" points="399,-47.62 395.5,-37.62 392,-47.62 399,-47.62"/>
</g>
<!-- [root] var.project_name -->
<g id="node9" class="node">
<title>[root] var.project_name</title>
<polygon fill="none" stroke="black" points="105,-36 0,-36 0,0 111,0 111,-30 105,-36"/>
<polyline fill="none" stroke="black" points="105,-36 105,-30"/>
<polyline fill="none" stroke="black" points="111,-30 105,-30"/>
<text text-anchor="middle" x="55.5" y="-14.3" font-family="Times,serif" font-size="14.00">var.project_name</text>
</g>
<!-- [root] google_project_iam_member.serviceUsage (expand)&#45;&gt;[root] var.project_name -->
<g id="edge9" class="edge">
<title>[root] google_project_iam_member.serviceUsage (expand)&#45;&gt;[root] var.project_name</title>
<path fill="none" stroke="black" d="M295.5,-71.54C245.81,-62.45 184.65,-50.64 122.15,-36.54"/>
<polygon fill="black" stroke="black" points="123.29,-33.21 112.77,-34.4 121.74,-40.03 123.29,-33.21"/>
</g>
<!-- [root] var.service_account -->
<g id="node11" class="node">
<title>[root] var.service_account</title>
<polygon fill="none" stroke="black" points="798.5,-36 680.5,-36 680.5,0 804.5,0 804.5,-30 798.5,-36"/>
<polyline fill="none" stroke="black" points="798.5,-36 798.5,-30"/>
<polyline fill="none" stroke="black" points="804.5,-30 798.5,-30"/>
<text text-anchor="middle" x="742.5" y="-14.3" font-family="Times,serif" font-size="14.00">var.service_account</text>
</g>
<!-- [root] google_project_iam_member.serviceUsage (expand)&#45;&gt;[root] var.service_account -->
<g id="edge10" class="edge">
<title>[root] google_project_iam_member.serviceUsage (expand)&#45;&gt;[root] var.service_account</title>
<path fill="none" stroke="black" d="M492.15,-71.55C542.31,-62.23 604.84,-50.2 669.04,-36.48"/>
<polygon fill="black" stroke="black" points="669.68,-39.93 678.72,-34.4 668.21,-33.08 669.68,-39.93"/>
</g>
<!-- [root] google_project_service.gke&#45;service (expand)&#45;&gt;[root] provider[&quot;registry.terraform.io/hashicorp/google&quot;] -->
<g id="edge11" class="edge">
<title>[root] google_project_service.gke&#45;service (expand)&#45;&gt;[root] provider[&quot;registry.terraform.io/hashicorp/google&quot;]</title>
<path fill="none" stroke="black" d="M208.69,-71.52C247.1,-60.72 296.18,-46.92 334.39,-36.18"/>
<polygon fill="black" stroke="black" points="335.23,-39.58 343.91,-33.5 333.34,-32.84 335.23,-39.58"/>
</g>
<!-- [root] google_project_service.gke&#45;service (expand)&#45;&gt;[root] var.project_name -->
<g id="edge12" class="edge">
<title>[root] google_project_service.gke&#45;service (expand)&#45;&gt;[root] var.project_name</title>
<path fill="none" stroke="black" d="M124.01,-71.7C112.85,-63.11 99.19,-52.61 87.01,-43.24"/>
<polygon fill="black" stroke="black" points="89.31,-40.59 79.25,-37.27 85.04,-46.14 89.31,-40.59"/>
</g>
<!-- [root] output.cluster_ca_certificate (expand) -->
<g id="node12" class="node">
<title>[root] output.cluster_ca_certificate (expand)</title>
<ellipse fill="none" stroke="black" cx="395.5" cy="-234" rx="167.07" ry="18"/>
<text text-anchor="middle" x="395.5" y="-230.3" font-family="Times,serif" font-size="14.00">[root] output.cluster_ca_certificate (expand)</text>
</g>
<!-- [root] output.cluster_ca_certificate (expand)&#45;&gt;[root] google_container_cluster.primary (expand) -->
<g id="edge13" class="edge">
<title>[root] output.cluster_ca_certificate (expand)&#45;&gt;[root] google_container_cluster.primary (expand)</title>
<path fill="none" stroke="black" d="M395.5,-215.7C395.5,-208.41 395.5,-199.73 395.5,-191.54"/>
<polygon fill="black" stroke="black" points="399,-191.62 395.5,-181.62 392,-191.62 399,-191.62"/>
</g>
<!-- [root] output.endpoint (expand) -->
<g id="node13" class="node">
<title>[root] output.endpoint (expand)</title>
<ellipse fill="none" stroke="black" cx="223.5" cy="-306" rx="122.38" ry="18"/>
<text text-anchor="middle" x="223.5" y="-302.3" font-family="Times,serif" font-size="14.00">[root] output.endpoint (expand)</text>
</g>
<!-- [root] output.endpoint (expand)&#45;&gt;[root] google_container_cluster.primary (expand) -->
<g id="edge14" class="edge">
<title>[root] output.endpoint (expand)&#45;&gt;[root] google_container_cluster.primary (expand)</title>
<path fill="none" stroke="black" d="M216.8,-287.73C210.49,-268.29 204.09,-236.73 219.5,-216 235.24,-194.82 259.17,-181.8 284.37,-173.86"/>
<polygon fill="black" stroke="black" points="285.11,-177.29 293.76,-171.18 283.19,-170.56 285.11,-177.29"/>
</g>
<!-- [root] provider[&quot;registry.terraform.io/hashicorp/google&quot;] (close) -->
<g id="node14" class="node">
<title>[root] provider[&quot;registry.terraform.io/hashicorp/google&quot;] (close)</title>
<ellipse fill="none" stroke="black" cx="703.5" cy="-306" rx="237.46" ry="18"/>
<text text-anchor="middle" x="703.5" y="-302.3" font-family="Times,serif" font-size="14.00">[root] provider[&quot;registry.terraform.io/hashicorp/google&quot;] (close)</text>
</g>
<!-- [root] provider[&quot;registry.terraform.io/hashicorp/google&quot;] (close)&#45;&gt;[root] google_container_node_pool.primary_preemptible_nodes (expand) -->
<g id="edge15" class="edge">
<title>[root] provider[&quot;registry.terraform.io/hashicorp/google&quot;] (close)&#45;&gt;[root] google_container_node_pool.primary_preemptible_nodes (expand)</title>
<path fill="none" stroke="black" d="M714.13,-287.7C718.92,-279.9 724.69,-270.51 730.02,-261.83"/>
<polygon fill="black" stroke="black" points="732.95,-263.75 735.2,-253.39 726.98,-260.08 732.95,-263.75"/>
</g>
<!-- [root] root -->
<g id="node15" class="node">
<title>[root] root</title>
<ellipse fill="none" stroke="black" cx="395.5" cy="-378" rx="47.39" ry="18"/>
<text text-anchor="middle" x="395.5" y="-374.3" font-family="Times,serif" font-size="14.00">[root] root</text>
</g>
<!-- [root] root&#45;&gt;[root] output.cluster_ca_certificate (expand) -->
<g id="edge16" class="edge">
<title>[root] root&#45;&gt;[root] output.cluster_ca_certificate (expand)</title>
<path fill="none" stroke="black" d="M395.5,-359.59C395.5,-335.61 395.5,-292.14 395.5,-263.42"/>
<polygon fill="black" stroke="black" points="399,-263.62 395.5,-253.62 392,-263.62 399,-263.62"/>
</g>
<!-- [root] root&#45;&gt;[root] output.endpoint (expand) -->
<g id="edge17" class="edge">
<title>[root] root&#45;&gt;[root] output.endpoint (expand)</title>
<path fill="none" stroke="black" d="M363.95,-364.16C338.9,-353.97 303.39,-339.51 274.33,-327.69"/>
<polygon fill="black" stroke="black" points="275.94,-324.56 265.36,-324.03 273.3,-331.05 275.94,-324.56"/>
</g>
<!-- [root] root&#45;&gt;[root] provider[&quot;registry.terraform.io/hashicorp/google&quot;] (close) -->
<g id="edge18" class="edge">
<title>[root] root&#45;&gt;[root] provider[&quot;registry.terraform.io/hashicorp/google&quot;] (close)</title>
<path fill="none" stroke="black" d="M435.45,-367.92C481.88,-357.37 559.77,-339.67 619.66,-326.05"/>
<polygon fill="black" stroke="black" points="620.17,-329.53 629.15,-323.9 618.62,-322.7 620.17,-329.53"/>
</g>
</g>
</svg>
