<?xml version="1.0" encoding="UTF-8" standalone="no"?>
<!DOCTYPE svg PUBLIC "-//W3C//DTD SVG 1.1//EN"
 "http://www.w3.org/Graphics/SVG/1.1/DTD/svg11.dtd">
<!-- Generated by graphviz version 7.0.1 (20221109.1506)
 -->
<!-- Pages: 1 -->
<svg width="901pt" height="332pt"
 viewBox="0.00 0.00 900.78 332.00" xmlns="http://www.w3.org/2000/svg" xmlns:xlink="http://www.w3.org/1999/xlink">
<g id="graph0" class="graph" transform="scale(1 1) rotate(0) translate(4 328)">
<polygon fill="white" stroke="none" points="-4,4 -4,-328 896.78,-328 896.78,4 -4,4"/>
<!-- [root] google_dataproc_workflow_template.dataproc_workflow_template (expand) -->
<g id="node1" class="node">
<title>[root] google_dataproc_workflow_template.dataproc_workflow_template (expand)</title>
<polygon fill="none" stroke="black" points="847.06,-180 464.06,-180 464.06,-144 847.06,-144 847.06,-180"/>
<text text-anchor="middle" x="655.56" y="-158.3" font-family="Times,serif" font-size="14.00">google_dataproc_workflow_template.dataproc_workflow_template</text>
</g>
<!-- [root] google_project_service.dataproc&#45;service (expand) -->
<g id="node2" class="node">
<title>[root] google_project_service.dataproc&#45;service (expand)</title>
<polygon fill="none" stroke="black" points="554.56,-108 318.56,-108 318.56,-72 554.56,-72 554.56,-108"/>
<text text-anchor="middle" x="436.56" y="-86.3" font-family="Times,serif" font-size="14.00">google_project_service.dataproc&#45;service</text>
</g>
<!-- [root] google_dataproc_workflow_template.dataproc_workflow_template (expand)&#45;&gt;[root] google_project_service.dataproc&#45;service (expand) -->
<g id="edge1" class="edge">
<title>[root] google_dataproc_workflow_template.dataproc_workflow_template (expand)&#45;&gt;[root] google_project_service.dataproc&#45;service (expand)</title>
<path fill="none" stroke="black" d="M600.86,-143.52C570.83,-133.92 533.38,-121.95 501.83,-111.86"/>
<polygon fill="black" stroke="black" points="502.97,-108.55 492.38,-108.84 500.84,-115.22 502.97,-108.55"/>
</g>
<!-- [root] var.py_file -->
<g id="node5" class="node">
<title>[root] var.py_file</title>
<polygon fill="none" stroke="black" points="642.06,-108 573.06,-108 573.06,-72 648.06,-72 648.06,-102 642.06,-108"/>
<polyline fill="none" stroke="black" points="642.06,-108 642.06,-102"/>
<polyline fill="none" stroke="black" points="648.06,-102 642.06,-102"/>
<text text-anchor="middle" x="610.56" y="-86.3" font-family="Times,serif" font-size="14.00">var.py_file</text>
</g>
<!-- [root] google_dataproc_workflow_template.dataproc_workflow_template (expand)&#45;&gt;[root] var.py_file -->
<g id="edge2" class="edge">
<title>[root] google_dataproc_workflow_template.dataproc_workflow_template (expand)&#45;&gt;[root] var.py_file</title>
<path fill="none" stroke="black" d="M644.43,-143.7C639.36,-135.81 633.25,-126.3 627.62,-117.55"/>
<polygon fill="black" stroke="black" points="630.72,-115.9 622.37,-109.38 624.83,-119.68 630.72,-115.9"/>
</g>
<!-- [root] var.region -->
<g id="node6" class="node">
<title>[root] var.region</title>
<polygon fill="none" stroke="black" points="731.06,-108 666.06,-108 666.06,-72 737.06,-72 737.06,-102 731.06,-108"/>
<polyline fill="none" stroke="black" points="731.06,-108 731.06,-102"/>
<polyline fill="none" stroke="black" points="737.06,-102 731.06,-102"/>
<text text-anchor="middle" x="701.56" y="-86.3" font-family="Times,serif" font-size="14.00">var.region</text>
</g>
<!-- [root] google_dataproc_workflow_template.dataproc_workflow_template (expand)&#45;&gt;[root] var.region -->
<g id="edge3" class="edge">
<title>[root] google_dataproc_workflow_template.dataproc_workflow_template (expand)&#45;&gt;[root] var.region</title>
<path fill="none" stroke="black" d="M666.93,-143.7C672.11,-135.81 678.36,-126.3 684.11,-117.55"/>
<polygon fill="black" stroke="black" points="686.92,-119.65 689.48,-109.37 681.07,-115.8 686.92,-119.65"/>
</g>
<!-- [root] var.staging_bucket -->
<g id="node7" class="node">
<title>[root] var.staging_bucket</title>
<polygon fill="none" stroke="black" points="868.06,-108 755.06,-108 755.06,-72 874.06,-72 874.06,-102 868.06,-108"/>
<polyline fill="none" stroke="black" points="868.06,-108 868.06,-102"/>
<polyline fill="none" stroke="black" points="874.06,-102 868.06,-102"/>
<text text-anchor="middle" x="814.56" y="-86.3" font-family="Times,serif" font-size="14.00">var.staging_bucket</text>
</g>
<!-- [root] google_dataproc_workflow_template.dataproc_workflow_template (expand)&#45;&gt;[root] var.staging_bucket -->
<g id="edge4" class="edge">
<title>[root] google_dataproc_workflow_template.dataproc_workflow_template (expand)&#45;&gt;[root] var.staging_bucket</title>
<path fill="none" stroke="black" d="M695.27,-143.52C716.31,-134.25 742.36,-122.78 764.75,-112.93"/>
<polygon fill="black" stroke="black" points="765.95,-116.22 773.69,-108.99 763.13,-109.82 765.95,-116.22"/>
</g>
<!-- [root] provider[&quot;registry.terraform.io/hashicorp/google&quot;] -->
<g id="node3" class="node">
<title>[root] provider[&quot;registry.terraform.io/hashicorp/google&quot;]</title>
<polygon fill="none" stroke="black" points="266.56,-36 -0.06,-18 266.56,0 533.17,-18 266.56,-36"/>
<text text-anchor="middle" x="266.56" y="-14.3" font-family="Times,serif" font-size="14.00">provider[&quot;registry.terraform.io/hashicorp/google&quot;]</text>
</g>
<!-- [root] google_project_service.dataproc&#45;service (expand)&#45;&gt;[root] provider[&quot;registry.terraform.io/hashicorp/google&quot;] -->
<g id="edge5" class="edge">
<title>[root] google_project_service.dataproc&#45;service (expand)&#45;&gt;[root] provider[&quot;registry.terraform.io/hashicorp/google&quot;]</title>
<path fill="none" stroke="black" d="M394.1,-71.52C369.57,-61.42 338.68,-48.7 313.44,-38.31"/>
<polygon fill="black" stroke="black" points="314.99,-35.16 304.41,-34.59 312.32,-41.63 314.99,-35.16"/>
</g>
<!-- [root] var.project_name -->
<g id="node4" class="node">
<title>[root] var.project_name</title>
<polygon fill="none" stroke="black" points="656.06,-36 551.06,-36 551.06,0 662.06,0 662.06,-30 656.06,-36"/>
<polyline fill="none" stroke="black" points="656.06,-36 656.06,-30"/>
<polyline fill="none" stroke="black" points="662.06,-30 656.06,-30"/>
<text text-anchor="middle" x="606.56" y="-14.3" font-family="Times,serif" font-size="14.00">var.project_name</text>
</g>
<!-- [root] google_project_service.dataproc&#45;service (expand)&#45;&gt;[root] var.project_name -->
<g id="edge6" class="edge">
<title>[root] google_project_service.dataproc&#45;service (expand)&#45;&gt;[root] var.project_name</title>
<path fill="none" stroke="black" d="M479.02,-71.52C501.72,-62.17 529.87,-50.57 553.95,-40.66"/>
<polygon fill="black" stroke="black" points="555.03,-44 562.94,-36.96 552.36,-37.53 555.03,-44"/>
</g>
<!-- [root] provider[&quot;registry.terraform.io/hashicorp/google&quot;] (close) -->
<g id="node8" class="node">
<title>[root] provider[&quot;registry.terraform.io/hashicorp/google&quot;] (close)</title>
<ellipse fill="none" stroke="black" cx="655.56" cy="-234" rx="237.46" ry="18"/>
<text text-anchor="middle" x="655.56" y="-230.3" font-family="Times,serif" font-size="14.00">[root] provider[&quot;registry.terraform.io/hashicorp/google&quot;] (close)</text>
</g>
<!-- [root] provider[&quot;registry.terraform.io/hashicorp/google&quot;] (close)&#45;&gt;[root] google_dataproc_workflow_template.dataproc_workflow_template (expand) -->
<g id="edge7" class="edge">
<title>[root] provider[&quot;registry.terraform.io/hashicorp/google&quot;] (close)&#45;&gt;[root] google_dataproc_workflow_template.dataproc_workflow_template (expand)</title>
<path fill="none" stroke="black" d="M655.56,-215.7C655.56,-208.41 655.56,-199.73 655.56,-191.54"/>
<polygon fill="black" stroke="black" points="659.06,-191.62 655.56,-181.62 652.06,-191.62 659.06,-191.62"/>
</g>
<!-- [root] root -->
<g id="node9" class="node">
<title>[root] root</title>
<ellipse fill="none" stroke="black" cx="655.56" cy="-306" rx="47.39" ry="18"/>
<text text-anchor="middle" x="655.56" y="-302.3" font-family="Times,serif" font-size="14.00">[root] root</text>
</g>
<!-- [root] root&#45;&gt;[root] provider[&quot;registry.terraform.io/hashicorp/google&quot;] (close) -->
<g id="edge8" class="edge">
<title>[root] root&#45;&gt;[root] provider[&quot;registry.terraform.io/hashicorp/google&quot;] (close)</title>
<path fill="none" stroke="black" d="M655.56,-287.7C655.56,-280.41 655.56,-271.73 655.56,-263.54"/>
<polygon fill="black" stroke="black" points="659.06,-263.62 655.56,-253.62 652.06,-263.62 659.06,-263.62"/>
</g>
</g>
</svg>
