<?xml version="1.0" encoding="UTF-8" standalone="no"?>
<!DOCTYPE svg PUBLIC "-//W3C//DTD SVG 1.1//EN"
 "http://www.w3.org/Graphics/SVG/1.1/DTD/svg11.dtd">
<!-- Generated by graphviz version 7.0.1 (20221109.1506)
 -->
<!-- Pages: 1 -->
<svg width="1193pt" height="548pt"
 viewBox="0.00 0.00 1192.74 548.00" xmlns="http://www.w3.org/2000/svg" xmlns:xlink="http://www.w3.org/1999/xlink">
<g id="graph0" class="graph" transform="scale(1 1) rotate(0) translate(4 544)">
<polygon fill="white" stroke="none" points="-4,4 -4,-544 1188.74,-544 1188.74,4 -4,4"/>
<!-- [root] google_project.tbd_project (expand) -->
<g id="node1" class="node">
<title>[root] google_project.tbd_project (expand)</title>
<polygon fill="none" stroke="black" points="612.24,-252 449.24,-252 449.24,-216 612.24,-216 612.24,-252"/>
<text text-anchor="middle" x="530.74" y="-230.3" font-family="Times,serif" font-size="14.00">google_project.tbd_project</text>
</g>
<!-- [root] provider[&quot;registry.terraform.io/hashicorp/google&quot;] -->
<g id="node8" class="node">
<title>[root] provider[&quot;registry.terraform.io/hashicorp/google&quot;]</title>
<polygon fill="none" stroke="black" points="358.74,-180 92.13,-162 358.74,-144 625.35,-162 358.74,-180"/>
<text text-anchor="middle" x="358.74" y="-158.3" font-family="Times,serif" font-size="14.00">provider[&quot;registry.terraform.io/hashicorp/google&quot;]</text>
</g>
<!-- [root] google_project.tbd_project (expand)&#45;&gt;[root] provider[&quot;registry.terraform.io/hashicorp/google&quot;] -->
<g id="edge1" class="edge">
<title>[root] google_project.tbd_project (expand)&#45;&gt;[root] provider[&quot;registry.terraform.io/hashicorp/google&quot;]</title>
<path fill="none" stroke="black" d="M487.78,-215.52C462.97,-205.42 431.71,-192.7 406.18,-182.31"/>
<polygon fill="black" stroke="black" points="407.6,-179.11 397.02,-178.58 404.96,-185.59 407.6,-179.11"/>
</g>
<!-- [root] var.billing_account -->
<g id="node9" class="node">
<title>[root] var.billing_account</title>
<polygon fill="none" stroke="black" points="758.24,-180 643.24,-180 643.24,-144 764.24,-144 764.24,-174 758.24,-180"/>
<polyline fill="none" stroke="black" points="758.24,-180 758.24,-174"/>
<polyline fill="none" stroke="black" points="764.24,-174 758.24,-174"/>
<text text-anchor="middle" x="703.74" y="-158.3" font-family="Times,serif" font-size="14.00">var.billing_account</text>
</g>
<!-- [root] google_project.tbd_project (expand)&#45;&gt;[root] var.billing_account -->
<g id="edge2" class="edge">
<title>[root] google_project.tbd_project (expand)&#45;&gt;[root] var.billing_account</title>
<path fill="none" stroke="black" d="M573.95,-215.52C597.05,-206.17 625.7,-194.57 650.21,-184.66"/>
<polygon fill="black" stroke="black" points="651.42,-187.94 659.38,-180.95 648.79,-181.46 651.42,-187.94"/>
</g>
<!-- [root] google_project_iam_member.tbd&#45;editor&#45;member (expand) -->
<g id="node2" class="node">
<title>[root] google_project_iam_member.tbd&#45;editor&#45;member (expand)</title>
<polygon fill="none" stroke="black" points="674.74,-396 390.74,-396 390.74,-360 674.74,-360 674.74,-396"/>
<text text-anchor="middle" x="532.74" y="-374.3" font-family="Times,serif" font-size="14.00">google_project_iam_member.tbd&#45;editor&#45;member</text>
</g>
<!-- [root] google_service_account.tbd&#45;terraform (expand) -->
<g id="node6" class="node">
<title>[root] google_service_account.tbd&#45;terraform (expand)</title>
<polygon fill="none" stroke="black" points="642.74,-324 418.74,-324 418.74,-288 642.74,-288 642.74,-324"/>
<text text-anchor="middle" x="530.74" y="-302.3" font-family="Times,serif" font-size="14.00">google_service_account.tbd&#45;terraform</text>
</g>
<!-- [root] google_project_iam_member.tbd&#45;editor&#45;member (expand)&#45;&gt;[root] google_service_account.tbd&#45;terraform (expand) -->
<g id="edge3" class="edge">
<title>[root] google_project_iam_member.tbd&#45;editor&#45;member (expand)&#45;&gt;[root] google_service_account.tbd&#45;terraform (expand)</title>
<path fill="none" stroke="black" d="M532.24,-359.7C532.03,-352.41 531.79,-343.73 531.55,-335.54"/>
<polygon fill="black" stroke="black" points="535.05,-335.51 531.27,-325.62 528.06,-335.71 535.05,-335.51"/>
</g>
<!-- [root] google_project_iam_member.tbd&#45;editor&#45;supervisors (expand) -->
<g id="node3" class="node">
<title>[root] google_project_iam_member.tbd&#45;editor&#45;supervisors (expand)</title>
<polygon fill="none" stroke="black" points="960.74,-324 660.74,-324 660.74,-288 960.74,-288 960.74,-324"/>
<text text-anchor="middle" x="810.74" y="-302.3" font-family="Times,serif" font-size="14.00">google_project_iam_member.tbd&#45;editor&#45;supervisors</text>
</g>
<!-- [root] google_project_iam_member.tbd&#45;editor&#45;supervisors (expand)&#45;&gt;[root] google_project.tbd_project (expand) -->
<g id="edge4" class="edge">
<title>[root] google_project_iam_member.tbd&#45;editor&#45;supervisors (expand)&#45;&gt;[root] google_project.tbd_project (expand)</title>
<path fill="none" stroke="black" d="M740.8,-287.52C701.48,-277.69 652.23,-265.37 611.3,-255.14"/>
<polygon fill="black" stroke="black" points="612.28,-251.78 601.73,-252.75 610.59,-258.57 612.28,-251.78"/>
</g>
<!-- [root] google_project_iam_member.tbd&#45;terraform&#45;sa&#45;member (expand) -->
<g id="node4" class="node">
<title>[root] google_project_iam_member.tbd&#45;terraform&#45;sa&#45;member (expand)</title>
<polygon fill="none" stroke="black" points="1012.74,-396 692.74,-396 692.74,-360 1012.74,-360 1012.74,-396"/>
<text text-anchor="middle" x="852.74" y="-374.3" font-family="Times,serif" font-size="14.00">google_project_iam_member.tbd&#45;terraform&#45;sa&#45;member</text>
</g>
<!-- [root] google_project_iam_member.tbd&#45;terraform&#45;sa&#45;member (expand)&#45;&gt;[root] google_service_account.tbd&#45;terraform (expand) -->
<g id="edge5" class="edge">
<title>[root] google_project_iam_member.tbd&#45;terraform&#45;sa&#45;member (expand)&#45;&gt;[root] google_service_account.tbd&#45;terraform (expand)</title>
<path fill="none" stroke="black" d="M772.31,-359.52C726.7,-349.6 669.46,-337.16 622.15,-326.87"/>
<polygon fill="black" stroke="black" points="622.97,-323.47 612.45,-324.76 621.48,-330.31 622.97,-323.47"/>
</g>
<!-- [root] google_project_service.tbd&#45;service (expand) -->
<g id="node5" class="node">
<title>[root] google_project_service.tbd&#45;service (expand)</title>
<polygon fill="none" stroke="black" points="1184.74,-324 978.74,-324 978.74,-288 1184.74,-288 1184.74,-324"/>
<text text-anchor="middle" x="1081.74" y="-302.3" font-family="Times,serif" font-size="14.00">google_project_service.tbd&#45;service</text>
</g>
<!-- [root] google_project_service.tbd&#45;service (expand)&#45;&gt;[root] google_project.tbd_project (expand) -->
<g id="edge6" class="edge">
<title>[root] google_project_service.tbd&#45;service (expand)&#45;&gt;[root] google_project.tbd_project (expand)</title>
<path fill="none" stroke="black" d="M978.32,-289.19C975.43,-288.78 972.56,-288.38 969.74,-288 850.59,-271.77 712.9,-255.56 623.96,-245.42"/>
<polygon fill="black" stroke="black" points="624.39,-241.95 614.06,-244.29 623.6,-248.9 624.39,-241.95"/>
</g>
<!-- [root] google_service_account.tbd&#45;terraform (expand)&#45;&gt;[root] google_project.tbd_project (expand) -->
<g id="edge7" class="edge">
<title>[root] google_service_account.tbd&#45;terraform (expand)&#45;&gt;[root] google_project.tbd_project (expand)</title>
<path fill="none" stroke="black" d="M530.74,-287.7C530.74,-280.41 530.74,-271.73 530.74,-263.54"/>
<polygon fill="black" stroke="black" points="534.24,-263.62 530.74,-253.62 527.24,-263.62 534.24,-263.62"/>
</g>
<!-- [root] google_storage_bucket.tbd&#45;state&#45;bucket (expand) -->
<g id="node7" class="node">
<title>[root] google_storage_bucket.tbd&#45;state&#45;bucket (expand)</title>
<polygon fill="none" stroke="black" points="372.24,-396 139.24,-396 139.24,-360 372.24,-360 372.24,-396"/>
<text text-anchor="middle" x="255.74" y="-374.3" font-family="Times,serif" font-size="14.00">google_storage_bucket.tbd&#45;state&#45;bucket</text>
</g>
<!-- [root] google_storage_bucket.tbd&#45;state&#45;bucket (expand)&#45;&gt;[root] google_project.tbd_project (expand) -->
<g id="edge8" class="edge">
<title>[root] google_storage_bucket.tbd&#45;state&#45;bucket (expand)&#45;&gt;[root] google_project.tbd_project (expand)</title>
<path fill="none" stroke="black" d="M283.6,-359.64C314.06,-340.96 364.55,-310.86 409.74,-288 431.53,-276.97 456.14,-265.95 477.44,-256.83"/>
<polygon fill="black" stroke="black" points="478.69,-260.1 486.53,-252.97 475.96,-253.66 478.69,-260.1"/>
</g>
<!-- [root] var.region -->
<g id="node11" class="node">
<title>[root] var.region</title>
<polygon fill="none" stroke="black" points="306.24,-108 241.24,-108 241.24,-72 312.24,-72 312.24,-102 306.24,-108"/>
<polyline fill="none" stroke="black" points="306.24,-108 306.24,-102"/>
<polyline fill="none" stroke="black" points="312.24,-102 306.24,-102"/>
<text text-anchor="middle" x="276.74" y="-86.3" font-family="Times,serif" font-size="14.00">var.region</text>
</g>
<!-- [root] provider[&quot;registry.terraform.io/hashicorp/google&quot;]&#45;&gt;[root] var.region -->
<g id="edge19" class="edge">
<title>[root] provider[&quot;registry.terraform.io/hashicorp/google&quot;]&#45;&gt;[root] var.region</title>
<path fill="none" stroke="black" d="M340.13,-145.12C329.89,-136.37 316.96,-125.33 305.45,-115.51"/>
<polygon fill="black" stroke="black" points="308.02,-113.11 298.15,-109.27 303.48,-118.43 308.02,-113.11"/>
</g>
<!-- [root] local.project (expand) -->
<g id="node13" class="node">
<title>[root] local.project (expand)</title>
<ellipse fill="none" stroke="black" cx="440.74" cy="-90" rx="110.48" ry="18"/>
<text text-anchor="middle" x="440.74" y="-86.3" font-family="Times,serif" font-size="14.00">[root] local.project (expand)</text>
</g>
<!-- [root] provider[&quot;registry.terraform.io/hashicorp/google&quot;]&#45;&gt;[root] local.project (expand) -->
<g id="edge18" class="edge">
<title>[root] provider[&quot;registry.terraform.io/hashicorp/google&quot;]&#45;&gt;[root] local.project (expand)</title>
<path fill="none" stroke="black" d="M377.34,-145.12C387.66,-136.31 400.71,-125.17 412.28,-115.29"/>
<polygon fill="black" stroke="black" points="414.29,-118.18 419.62,-109.03 409.74,-112.86 414.29,-118.18"/>
</g>
<!-- [root] var.group_id -->
<g id="node10" class="node">
<title>[root] var.group_id</title>
<polygon fill="none" stroke="black" points="419.74,-36 339.74,-36 339.74,0 425.74,0 425.74,-30 419.74,-36"/>
<polyline fill="none" stroke="black" points="419.74,-36 419.74,-30"/>
<polyline fill="none" stroke="black" points="425.74,-30 419.74,-30"/>
<text text-anchor="middle" x="382.74" y="-14.3" font-family="Times,serif" font-size="14.00">var.group_id</text>
</g>
<!-- [root] var.tbd_semester -->
<g id="node12" class="node">
<title>[root] var.tbd_semester</title>
<polygon fill="none" stroke="black" points="547.24,-36 444.24,-36 444.24,0 553.24,0 553.24,-30 547.24,-36"/>
<polyline fill="none" stroke="black" points="547.24,-36 547.24,-30"/>
<polyline fill="none" stroke="black" points="553.24,-30 547.24,-30"/>
<text text-anchor="middle" x="498.74" y="-14.3" font-family="Times,serif" font-size="14.00">var.tbd_semester</text>
</g>
<!-- [root] local.project (expand)&#45;&gt;[root] var.group_id -->
<g id="edge9" class="edge">
<title>[root] local.project (expand)&#45;&gt;[root] var.group_id</title>
<path fill="none" stroke="black" d="M426.4,-71.7C419.66,-63.56 411.48,-53.69 404.03,-44.7"/>
<polygon fill="black" stroke="black" points="406.95,-42.74 397.88,-37.27 401.56,-47.2 406.95,-42.74"/>
</g>
<!-- [root] local.project (expand)&#45;&gt;[root] var.tbd_semester -->
<g id="edge10" class="edge">
<title>[root] local.project (expand)&#45;&gt;[root] var.tbd_semester</title>
<path fill="none" stroke="black" d="M455.07,-71.7C461.82,-63.56 470,-53.69 477.44,-44.7"/>
<polygon fill="black" stroke="black" points="479.91,-47.2 483.6,-37.27 474.52,-42.74 479.91,-47.2"/>
</g>
<!-- [root] output.project_name (expand) -->
<g id="node14" class="node">
<title>[root] output.project_name (expand)</title>
<ellipse fill="none" stroke="black" cx="139.74" cy="-306" rx="139.98" ry="18"/>
<text text-anchor="middle" x="139.74" y="-302.3" font-family="Times,serif" font-size="14.00">[root] output.project_name (expand)</text>
</g>
<!-- [root] output.project_name (expand)&#45;&gt;[root] google_project.tbd_project (expand) -->
<g id="edge11" class="edge">
<title>[root] output.project_name (expand)&#45;&gt;[root] google_project.tbd_project (expand)</title>
<path fill="none" stroke="black" d="M218.86,-290.83C282.28,-279.48 371.37,-263.53 438.11,-251.58"/>
<polygon fill="black" stroke="black" points="438.32,-255.1 447.55,-249.89 437.09,-248.21 438.32,-255.1"/>
</g>
<!-- [root] output.terraform_state_bucket (expand) -->
<g id="node15" class="node">
<title>[root] output.terraform_state_bucket (expand)</title>
<ellipse fill="none" stroke="black" cx="312.74" cy="-450" rx="173.57" ry="18"/>
<text text-anchor="middle" x="312.74" y="-446.3" font-family="Times,serif" font-size="14.00">[root] output.terraform_state_bucket (expand)</text>
</g>
<!-- [root] output.terraform_state_bucket (expand)&#45;&gt;[root] google_storage_bucket.tbd&#45;state&#45;bucket (expand) -->
<g id="edge12" class="edge">
<title>[root] output.terraform_state_bucket (expand)&#45;&gt;[root] google_storage_bucket.tbd&#45;state&#45;bucket (expand)</title>
<path fill="none" stroke="black" d="M298.65,-431.7C292.09,-423.64 284.15,-413.89 276.89,-404.98"/>
<polygon fill="black" stroke="black" points="279.65,-402.82 270.62,-397.28 274.22,-407.24 279.65,-402.82"/>
</g>
<!-- [root] provider[&quot;registry.terraform.io/hashicorp/google&quot;] (close) -->
<g id="node16" class="node">
<title>[root] provider[&quot;registry.terraform.io/hashicorp/google&quot;] (close)</title>
<ellipse fill="none" stroke="black" cx="796.74" cy="-450" rx="237.46" ry="18"/>
<text text-anchor="middle" x="796.74" y="-446.3" font-family="Times,serif" font-size="14.00">[root] provider[&quot;registry.terraform.io/hashicorp/google&quot;] (close)</text>
</g>
<!-- [root] provider[&quot;registry.terraform.io/hashicorp/google&quot;] (close)&#45;&gt;[root] google_project_iam_member.tbd&#45;editor&#45;member (expand) -->
<g id="edge13" class="edge">
<title>[root] provider[&quot;registry.terraform.io/hashicorp/google&quot;] (close)&#45;&gt;[root] google_project_iam_member.tbd&#45;editor&#45;member (expand)</title>
<path fill="none" stroke="black" d="M733.5,-432.23C696.27,-422.36 648.92,-409.81 609.55,-399.37"/>
<polygon fill="black" stroke="black" points="610.7,-396.05 600.14,-396.87 608.91,-402.82 610.7,-396.05"/>
</g>
<!-- [root] provider[&quot;registry.terraform.io/hashicorp/google&quot;] (close)&#45;&gt;[root] google_project_iam_member.tbd&#45;editor&#45;supervisors (expand) -->
<g id="edge14" class="edge">
<title>[root] provider[&quot;registry.terraform.io/hashicorp/google&quot;] (close)&#45;&gt;[root] google_project_iam_member.tbd&#45;editor&#45;supervisors (expand)</title>
<path fill="none" stroke="black" d="M917.9,-434.11C963.57,-425.8 1007.88,-413.5 1021.74,-396 1048.98,-361.59 1013.49,-340.31 964.3,-327.23"/>
<polygon fill="black" stroke="black" points="965.29,-323.87 954.74,-324.84 963.6,-330.66 965.29,-323.87"/>
</g>
<!-- [root] provider[&quot;registry.terraform.io/hashicorp/google&quot;] (close)&#45;&gt;[root] google_project_iam_member.tbd&#45;terraform&#45;sa&#45;member (expand) -->
<g id="edge15" class="edge">
<title>[root] provider[&quot;registry.terraform.io/hashicorp/google&quot;] (close)&#45;&gt;[root] google_project_iam_member.tbd&#45;terraform&#45;sa&#45;member (expand)</title>
<path fill="none" stroke="black" d="M810.58,-431.7C817.02,-423.64 824.82,-413.89 831.95,-404.98"/>
<polygon fill="black" stroke="black" points="834.59,-407.28 838.11,-397.29 829.13,-402.91 834.59,-407.28"/>
</g>
<!-- [root] provider[&quot;registry.terraform.io/hashicorp/google&quot;] (close)&#45;&gt;[root] google_project_service.tbd&#45;service (expand) -->
<g id="edge16" class="edge">
<title>[root] provider[&quot;registry.terraform.io/hashicorp/google&quot;] (close)&#45;&gt;[root] google_project_service.tbd&#45;service (expand)</title>
<path fill="none" stroke="black" d="M911.47,-433.85C964.12,-424.95 1019.34,-412.24 1039.74,-396 1058.73,-380.88 1069.58,-355.12 1075.48,-335.19"/>
<polygon fill="black" stroke="black" points="1078.81,-336.29 1078.01,-325.72 1072.04,-334.48 1078.81,-336.29"/>
</g>
<!-- [root] provider[&quot;registry.terraform.io/hashicorp/google&quot;] (close)&#45;&gt;[root] google_storage_bucket.tbd&#45;state&#45;bucket (expand) -->
<g id="edge17" class="edge">
<title>[root] provider[&quot;registry.terraform.io/hashicorp/google&quot;] (close)&#45;&gt;[root] google_storage_bucket.tbd&#45;state&#45;bucket (expand)</title>
<path fill="none" stroke="black" d="M677.75,-434.03C597.6,-423.89 489.19,-410.08 383.63,-396.24"/>
<polygon fill="black" stroke="black" points="384.31,-392.8 373.94,-394.97 383.39,-399.74 384.31,-392.8"/>
</g>
<!-- [root] root -->
<g id="node17" class="node">
<title>[root] root</title>
<ellipse fill="none" stroke="black" cx="312.74" cy="-522" rx="47.39" ry="18"/>
<text text-anchor="middle" x="312.74" y="-518.3" font-family="Times,serif" font-size="14.00">[root] root</text>
</g>
<!-- [root] root&#45;&gt;[root] output.project_name (expand) -->
<g id="edge20" class="edge">
<title>[root] root&#45;&gt;[root] output.project_name (expand)</title>
<path fill="none" stroke="black" d="M269.08,-514.47C220.46,-506.19 146.48,-490.28 129.74,-468 100.67,-429.31 115.4,-369.5 128.04,-334.7"/>
<polygon fill="black" stroke="black" points="131.16,-336.35 131.48,-325.76 124.63,-333.84 131.16,-336.35"/>
</g>
<!-- [root] root&#45;&gt;[root] output.terraform_state_bucket (expand) -->
<g id="edge21" class="edge">
<title>[root] root&#45;&gt;[root] output.terraform_state_bucket (expand)</title>
<path fill="none" stroke="black" d="M312.74,-503.7C312.74,-496.41 312.74,-487.73 312.74,-479.54"/>
<polygon fill="black" stroke="black" points="316.24,-479.62 312.74,-469.62 309.24,-479.62 316.24,-479.62"/>
</g>
<!-- [root] root&#45;&gt;[root] provider[&quot;registry.terraform.io/hashicorp/google&quot;] (close) -->
<g id="edge22" class="edge">
<title>[root] root&#45;&gt;[root] provider[&quot;registry.terraform.io/hashicorp/google&quot;] (close)</title>
<path fill="none" stroke="black" d="M356.54,-514.66C428.61,-504.24 574.57,-483.13 678.65,-468.08"/>
<polygon fill="black" stroke="black" points="678.96,-471.57 688.35,-466.68 677.95,-464.64 678.96,-471.57"/>
</g>
</g>
</svg>
