<?xml version="1.0" encoding="UTF-8" standalone="no"?>
<!DOCTYPE svg PUBLIC "-//W3C//DTD SVG 1.1//EN"
 "http://www.w3.org/Graphics/SVG/1.1/DTD/svg11.dtd">
<!-- Generated by graphviz version 7.0.1 (20221109.1506)
 -->
<!-- Pages: 1 -->
<svg width="659pt" height="260pt"
 viewBox="0.00 0.00 658.66 260.00" xmlns="http://www.w3.org/2000/svg" xmlns:xlink="http://www.w3.org/1999/xlink">
<g id="graph0" class="graph" transform="scale(1 1) rotate(0) translate(4 256)">
<polygon fill="white" stroke="none" points="-4,4 -4,-256 654.66,-256 654.66,4 -4,4"/>
<!-- [root] helm_release.spark&#45;operator (expand) -->
<g id="node1" class="node">
<title>[root] helm_release.spark&#45;operator (expand)</title>
<polygon fill="none" stroke="black" points="504.78,-108 333.78,-108 333.78,-72 504.78,-72 504.78,-108"/>
<text text-anchor="middle" x="419.28" y="-86.3" font-family="Times,serif" font-size="14.00">helm_release.spark&#45;operator</text>
</g>
<!-- [root] provider[&quot;registry.terraform.io/hashicorp/helm&quot;] -->
<g id="node2" class="node">
<title>[root] provider[&quot;registry.terraform.io/hashicorp/helm&quot;]</title>
<polygon fill="none" stroke="black" points="258.28,-36 0.22,-18 258.28,0 516.35,-18 258.28,-36"/>
<text text-anchor="middle" x="258.28" y="-14.3" font-family="Times,serif" font-size="14.00">provider[&quot;registry.terraform.io/hashicorp/helm&quot;]</text>
</g>
<!-- [root] helm_release.spark&#45;operator (expand)&#45;&gt;[root] provider[&quot;registry.terraform.io/hashicorp/helm&quot;] -->
<g id="edge1" class="edge">
<title>[root] helm_release.spark&#45;operator (expand)&#45;&gt;[root] provider[&quot;registry.terraform.io/hashicorp/helm&quot;]</title>
<path fill="none" stroke="black" d="M379.07,-71.52C356.05,-61.51 327.11,-48.93 303.33,-38.59"/>
<polygon fill="black" stroke="black" points="304.76,-35.39 294.19,-34.61 301.97,-41.81 304.76,-35.39"/>
</g>
<!-- [root] var.image_tag -->
<g id="node3" class="node">
<title>[root] var.image_tag</title>
<polygon fill="none" stroke="black" points="622.28,-36 534.28,-36 534.28,0 628.28,0 628.28,-30 622.28,-36"/>
<polyline fill="none" stroke="black" points="622.28,-36 622.28,-30"/>
<polyline fill="none" stroke="black" points="628.28,-30 622.28,-30"/>
<text text-anchor="middle" x="581.28" y="-14.3" font-family="Times,serif" font-size="14.00">var.image_tag</text>
</g>
<!-- [root] helm_release.spark&#45;operator (expand)&#45;&gt;[root] var.image_tag -->
<g id="edge2" class="edge">
<title>[root] helm_release.spark&#45;operator (expand)&#45;&gt;[root] var.image_tag</title>
<path fill="none" stroke="black" d="M459.74,-71.52C481.18,-62.25 507.73,-50.78 530.54,-40.93"/>
<polygon fill="black" stroke="black" points="531.88,-44.16 539.67,-36.98 529.1,-37.74 531.88,-44.16"/>
</g>
<!-- [root] provider[&quot;registry.terraform.io/hashicorp/helm&quot;] (close) -->
<g id="node4" class="node">
<title>[root] provider[&quot;registry.terraform.io/hashicorp/helm&quot;] (close)</title>
<ellipse fill="none" stroke="black" cx="419.28" cy="-162" rx="231.26" ry="18"/>
<text text-anchor="middle" x="419.28" y="-158.3" font-family="Times,serif" font-size="14.00">[root] provider[&quot;registry.terraform.io/hashicorp/helm&quot;] (close)</text>
</g>
<!-- [root] provider[&quot;registry.terraform.io/hashicorp/helm&quot;] (close)&#45;&gt;[root] helm_release.spark&#45;operator (expand) -->
<g id="edge3" class="edge">
<title>[root] provider[&quot;registry.terraform.io/hashicorp/helm&quot;] (close)&#45;&gt;[root] helm_release.spark&#45;operator (expand)</title>
<path fill="none" stroke="black" d="M419.28,-143.7C419.28,-136.41 419.28,-127.73 419.28,-119.54"/>
<polygon fill="black" stroke="black" points="422.78,-119.62 419.28,-109.62 415.78,-119.62 422.78,-119.62"/>
</g>
<!-- [root] root -->
<g id="node5" class="node">
<title>[root] root</title>
<ellipse fill="none" stroke="black" cx="419.28" cy="-234" rx="47.39" ry="18"/>
<text text-anchor="middle" x="419.28" y="-230.3" font-family="Times,serif" font-size="14.00">[root] root</text>
</g>
<!-- [root] root&#45;&gt;[root] provider[&quot;registry.terraform.io/hashicorp/helm&quot;] (close) -->
<g id="edge4" class="edge">
<title>[root] root&#45;&gt;[root] provider[&quot;registry.terraform.io/hashicorp/helm&quot;] (close)</title>
<path fill="none" stroke="black" d="M419.28,-215.7C419.28,-208.41 419.28,-199.73 419.28,-191.54"/>
<polygon fill="black" stroke="black" points="422.78,-191.62 419.28,-181.62 415.78,-191.62 422.78,-191.62"/>
</g>
</g>
</svg>
