<?xml version="1.0" encoding="UTF-8" standalone="no"?>
<!DOCTYPE svg PUBLIC "-//W3C//DTD SVG 1.1//EN"
 "http://www.w3.org/Graphics/SVG/1.1/DTD/svg11.dtd">
<!-- Generated by graphviz version 7.0.1 (20221109.1506)
 -->
<!-- Pages: 1 -->
<svg width="1215pt" height="548pt"
 viewBox="0.00 0.00 1214.69 548.00" xmlns="http://www.w3.org/2000/svg" xmlns:xlink="http://www.w3.org/1999/xlink">
<g id="graph0" class="graph" transform="scale(1 1) rotate(0) translate(4 544)">
<polygon fill="white" stroke="none" points="-4,4 -4,-544 1210.69,-544 1210.69,4 -4,4"/>
<!-- [root] google_dataproc_autoscaling_policy.asp (expand) -->
<g id="node1" class="node">
<title>[root] google_dataproc_autoscaling_policy.asp (expand)</title>
<polygon fill="none" stroke="black" points="798.5,-252 562.5,-252 562.5,-216 798.5,-216 798.5,-252"/>
<text text-anchor="middle" x="680.5" y="-230.3" font-family="Times,serif" font-size="14.00">google_dataproc_autoscaling_policy.asp</text>
</g>
<!-- [root] provider[&quot;registry.terraform.io/hashicorp/google&quot;] -->
<g id="node5" class="node">
<title>[root] provider[&quot;registry.terraform.io/hashicorp/google&quot;]</title>
<polygon fill="none" stroke="black" points="680.5,-180 413.89,-162 680.5,-144 947.11,-162 680.5,-180"/>
<text text-anchor="middle" x="680.5" y="-158.3" font-family="Times,serif" font-size="14.00">provider[&quot;registry.terraform.io/hashicorp/google&quot;]</text>
</g>
<!-- [root] google_dataproc_autoscaling_policy.asp (expand)&#45;&gt;[root] provider[&quot;registry.terraform.io/hashicorp/google&quot;] -->
<g id="edge1" class="edge">
<title>[root] google_dataproc_autoscaling_policy.asp (expand)&#45;&gt;[root] provider[&quot;registry.terraform.io/hashicorp/google&quot;]</title>
<path fill="none" stroke="black" d="M680.5,-215.7C680.5,-208.41 680.5,-199.73 680.5,-191.54"/>
<polygon fill="black" stroke="black" points="684,-191.62 680.5,-181.62 677,-191.62 684,-191.62"/>
</g>
<!-- [root] google_dataproc_cluster.mycluster (expand) -->
<g id="node2" class="node">
<title>[root] google_dataproc_cluster.mycluster (expand)</title>
<polygon fill="none" stroke="black" points="783.5,-324 577.5,-324 577.5,-288 783.5,-288 783.5,-324"/>
<text text-anchor="middle" x="680.5" y="-302.3" font-family="Times,serif" font-size="14.00">google_dataproc_cluster.mycluster</text>
</g>
<!-- [root] google_dataproc_cluster.mycluster (expand)&#45;&gt;[root] google_dataproc_autoscaling_policy.asp (expand) -->
<g id="edge2" class="edge">
<title>[root] google_dataproc_cluster.mycluster (expand)&#45;&gt;[root] google_dataproc_autoscaling_policy.asp (expand)</title>
<path fill="none" stroke="black" d="M680.5,-287.7C680.5,-280.41 680.5,-271.73 680.5,-263.54"/>
<polygon fill="black" stroke="black" points="684,-263.62 680.5,-253.62 677,-263.62 684,-263.62"/>
</g>
<!-- [root] google_dataproc_job.pyspark (expand) -->
<g id="node3" class="node">
<title>[root] google_dataproc_job.pyspark (expand)</title>
<polygon fill="none" stroke="black" points="675,-396 498,-396 498,-360 675,-360 675,-396"/>
<text text-anchor="middle" x="586.5" y="-374.3" font-family="Times,serif" font-size="14.00">google_dataproc_job.pyspark</text>
</g>
<!-- [root] google_dataproc_job.pyspark (expand)&#45;&gt;[root] google_dataproc_cluster.mycluster (expand) -->
<g id="edge3" class="edge">
<title>[root] google_dataproc_job.pyspark (expand)&#45;&gt;[root] google_dataproc_cluster.mycluster (expand)</title>
<path fill="none" stroke="black" d="M609.74,-359.7C621.37,-351.03 635.65,-340.4 648.32,-330.96"/>
<polygon fill="black" stroke="black" points="650.06,-334.03 655.99,-325.25 645.88,-328.42 650.06,-334.03"/>
</g>
<!-- [root] google_dataproc_job.spark (expand) -->
<g id="node4" class="node">
<title>[root] google_dataproc_job.spark (expand)</title>
<polygon fill="none" stroke="black" points="857.5,-396 693.5,-396 693.5,-360 857.5,-360 857.5,-396"/>
<text text-anchor="middle" x="775.5" y="-374.3" font-family="Times,serif" font-size="14.00">google_dataproc_job.spark</text>
</g>
<!-- [root] google_dataproc_job.spark (expand)&#45;&gt;[root] google_dataproc_cluster.mycluster (expand) -->
<g id="edge4" class="edge">
<title>[root] google_dataproc_job.spark (expand)&#45;&gt;[root] google_dataproc_cluster.mycluster (expand)</title>
<path fill="none" stroke="black" d="M752.02,-359.7C740.26,-351.03 725.83,-340.4 713.02,-330.96"/>
<polygon fill="black" stroke="black" points="715.39,-328.36 705.26,-325.24 711.24,-333.99 715.39,-328.36"/>
</g>
<!-- [root] var.region -->
<g id="node8" class="node">
<title>[root] var.region</title>
<polygon fill="none" stroke="black" points="628,-108 563,-108 563,-72 634,-72 634,-102 628,-108"/>
<polyline fill="none" stroke="black" points="628,-108 628,-102"/>
<polyline fill="none" stroke="black" points="634,-102 628,-102"/>
<text text-anchor="middle" x="598.5" y="-86.3" font-family="Times,serif" font-size="14.00">var.region</text>
</g>
<!-- [root] provider[&quot;registry.terraform.io/hashicorp/google&quot;]&#45;&gt;[root] var.region -->
<g id="edge12" class="edge">
<title>[root] provider[&quot;registry.terraform.io/hashicorp/google&quot;]&#45;&gt;[root] var.region</title>
<path fill="none" stroke="black" d="M661.89,-145.12C651.65,-136.37 638.72,-125.33 627.21,-115.51"/>
<polygon fill="black" stroke="black" points="629.79,-113.11 619.91,-109.27 625.24,-118.43 629.79,-113.11"/>
</g>
<!-- [root] local.project (expand) -->
<g id="node10" class="node">
<title>[root] local.project (expand)</title>
<ellipse fill="none" stroke="black" cx="762.5" cy="-90" rx="110.48" ry="18"/>
<text text-anchor="middle" x="762.5" y="-86.3" font-family="Times,serif" font-size="14.00">[root] local.project (expand)</text>
</g>
<!-- [root] provider[&quot;registry.terraform.io/hashicorp/google&quot;]&#45;&gt;[root] local.project (expand) -->
<g id="edge11" class="edge">
<title>[root] provider[&quot;registry.terraform.io/hashicorp/google&quot;]&#45;&gt;[root] local.project (expand)</title>
<path fill="none" stroke="black" d="M699.11,-145.12C709.42,-136.31 722.47,-125.17 734.04,-115.29"/>
<polygon fill="black" stroke="black" points="736.05,-118.18 741.38,-109.03 731.5,-112.86 736.05,-118.18"/>
</g>
<!-- [root] var.billing_account -->
<g id="node6" class="node">
<title>[root] var.billing_account</title>
<polygon fill="none" stroke="black" points="115,-468 0,-468 0,-432 121,-432 121,-462 115,-468"/>
<polyline fill="none" stroke="black" points="115,-468 115,-462"/>
<polyline fill="none" stroke="black" points="121,-462 115,-462"/>
<text text-anchor="middle" x="60.5" y="-446.3" font-family="Times,serif" font-size="14.00">var.billing_account</text>
</g>
<!-- [root] var.group_id -->
<g id="node7" class="node">
<title>[root] var.group_id</title>
<polygon fill="none" stroke="black" points="741.5,-36 661.5,-36 661.5,0 747.5,0 747.5,-30 741.5,-36"/>
<polyline fill="none" stroke="black" points="741.5,-36 741.5,-30"/>
<polyline fill="none" stroke="black" points="747.5,-30 741.5,-30"/>
<text text-anchor="middle" x="704.5" y="-14.3" font-family="Times,serif" font-size="14.00">var.group_id</text>
</g>
<!-- [root] var.tbd_semester -->
<g id="node9" class="node">
<title>[root] var.tbd_semester</title>
<polygon fill="none" stroke="black" points="869,-36 766,-36 766,0 875,0 875,-30 869,-36"/>
<polyline fill="none" stroke="black" points="869,-36 869,-30"/>
<polyline fill="none" stroke="black" points="875,-30 869,-30"/>
<text text-anchor="middle" x="820.5" y="-14.3" font-family="Times,serif" font-size="14.00">var.tbd_semester</text>
</g>
<!-- [root] local.project (expand)&#45;&gt;[root] var.group_id -->
<g id="edge5" class="edge">
<title>[root] local.project (expand)&#45;&gt;[root] var.group_id</title>
<path fill="none" stroke="black" d="M748.16,-71.7C741.42,-63.56 733.24,-53.69 725.8,-44.7"/>
<polygon fill="black" stroke="black" points="728.71,-42.74 719.64,-37.27 723.32,-47.2 728.71,-42.74"/>
</g>
<!-- [root] local.project (expand)&#45;&gt;[root] var.tbd_semester -->
<g id="edge6" class="edge">
<title>[root] local.project (expand)&#45;&gt;[root] var.tbd_semester</title>
<path fill="none" stroke="black" d="M776.84,-71.7C783.58,-63.56 791.76,-53.69 799.2,-44.7"/>
<polygon fill="black" stroke="black" points="801.68,-47.2 805.36,-37.27 796.29,-42.74 801.68,-47.2"/>
</g>
<!-- [root] output.pyspark_status (expand) -->
<g id="node11" class="node">
<title>[root] output.pyspark_status (expand)</title>
<ellipse fill="none" stroke="black" cx="282.5" cy="-450" rx="143.77" ry="18"/>
<text text-anchor="middle" x="282.5" y="-446.3" font-family="Times,serif" font-size="14.00">[root] output.pyspark_status (expand)</text>
</g>
<!-- [root] output.pyspark_status (expand)&#45;&gt;[root] google_dataproc_job.pyspark (expand) -->
<g id="edge7" class="edge">
<title>[root] output.pyspark_status (expand)&#45;&gt;[root] google_dataproc_job.pyspark (expand)</title>
<path fill="none" stroke="black" d="M349.21,-433.64C393.4,-423.46 451.8,-410.02 499.61,-399.01"/>
<polygon fill="black" stroke="black" points="500.14,-402.48 509.1,-396.82 498.57,-395.66 500.14,-402.48"/>
</g>
<!-- [root] output.spark_status (expand) -->
<g id="node12" class="node">
<title>[root] output.spark_status (expand)</title>
<ellipse fill="none" stroke="black" cx="1071.5" cy="-450" rx="135.38" ry="18"/>
<text text-anchor="middle" x="1071.5" y="-446.3" font-family="Times,serif" font-size="14.00">[root] output.spark_status (expand)</text>
</g>
<!-- [root] output.spark_status (expand)&#45;&gt;[root] google_dataproc_job.spark (expand) -->
<g id="edge8" class="edge">
<title>[root] output.spark_status (expand)&#45;&gt;[root] google_dataproc_job.spark (expand)</title>
<path fill="none" stroke="black" d="M1006.91,-433.72C963.91,-423.56 906.98,-410.09 860.34,-399.06"/>
<polygon fill="black" stroke="black" points="861.35,-395.71 850.81,-396.81 859.74,-402.52 861.35,-395.71"/>
</g>
<!-- [root] provider[&quot;registry.terraform.io/hashicorp/google&quot;] (close) -->
<g id="node13" class="node">
<title>[root] provider[&quot;registry.terraform.io/hashicorp/google&quot;] (close)</title>
<ellipse fill="none" stroke="black" cx="681.5" cy="-450" rx="237.46" ry="18"/>
<text text-anchor="middle" x="681.5" y="-446.3" font-family="Times,serif" font-size="14.00">[root] provider[&quot;registry.terraform.io/hashicorp/google&quot;] (close)</text>
</g>
<!-- [root] provider[&quot;registry.terraform.io/hashicorp/google&quot;] (close)&#45;&gt;[root] google_dataproc_job.pyspark (expand) -->
<g id="edge9" class="edge">
<title>[root] provider[&quot;registry.terraform.io/hashicorp/google&quot;] (close)&#45;&gt;[root] google_dataproc_job.pyspark (expand)</title>
<path fill="none" stroke="black" d="M658.02,-431.7C646.26,-423.03 631.83,-412.4 619.02,-402.96"/>
<polygon fill="black" stroke="black" points="621.39,-400.36 611.26,-397.24 617.24,-405.99 621.39,-400.36"/>
</g>
<!-- [root] provider[&quot;registry.terraform.io/hashicorp/google&quot;] (close)&#45;&gt;[root] google_dataproc_job.spark (expand) -->
<g id="edge10" class="edge">
<title>[root] provider[&quot;registry.terraform.io/hashicorp/google&quot;] (close)&#45;&gt;[root] google_dataproc_job.spark (expand)</title>
<path fill="none" stroke="black" d="M704.74,-431.7C716.37,-423.03 730.65,-412.4 743.32,-402.96"/>
<polygon fill="black" stroke="black" points="745.06,-406.03 750.99,-397.25 740.88,-400.42 745.06,-406.03"/>
</g>
<!-- [root] root -->
<g id="node14" class="node">
<title>[root] root</title>
<ellipse fill="none" stroke="black" cx="481.5" cy="-522" rx="47.39" ry="18"/>
<text text-anchor="middle" x="481.5" y="-518.3" font-family="Times,serif" font-size="14.00">[root] root</text>
</g>
<!-- [root] root&#45;&gt;[root] var.billing_account -->
<g id="edge16" class="edge">
<title>[root] root&#45;&gt;[root] var.billing_account</title>
<path fill="none" stroke="black" d="M436.82,-515.61C371.85,-507.49 247.32,-490.81 132.47,-468.5"/>
<polygon fill="black" stroke="black" points="133.36,-465.11 122.87,-466.62 132.01,-471.98 133.36,-465.11"/>
</g>
<!-- [root] root&#45;&gt;[root] output.pyspark_status (expand) -->
<g id="edge13" class="edge">
<title>[root] root&#45;&gt;[root] output.pyspark_status (expand)</title>
<path fill="none" stroke="black" d="M447.74,-509.13C418.2,-498.73 374.65,-483.42 339.68,-471.11"/>
<polygon fill="black" stroke="black" points="341.15,-467.92 330.56,-467.9 338.83,-474.52 341.15,-467.92"/>
</g>
<!-- [root] root&#45;&gt;[root] output.spark_status (expand) -->
<g id="edge14" class="edge">
<title>[root] root&#45;&gt;[root] output.spark_status (expand)</title>
<path fill="none" stroke="black" d="M526.33,-515.68C618.31,-504.77 830.69,-479.57 961.56,-464.04"/>
<polygon fill="black" stroke="black" points="961.77,-467.54 971.29,-462.89 960.94,-460.59 961.77,-467.54"/>
</g>
<!-- [root] root&#45;&gt;[root] provider[&quot;registry.terraform.io/hashicorp/google&quot;] (close) -->
<g id="edge15" class="edge">
<title>[root] root&#45;&gt;[root] provider[&quot;registry.terraform.io/hashicorp/google&quot;] (close)</title>
<path fill="none" stroke="black" d="M515.43,-509.13C544.62,-498.91 587.4,-483.94 622.23,-471.74"/>
<polygon fill="black" stroke="black" points="623.05,-475.17 631.33,-468.56 620.74,-468.56 623.05,-475.17"/>
</g>
</g>
</svg>
