<?xml version="1.0" encoding="UTF-8" standalone="no"?>
<!DOCTYPE svg PUBLIC "-//W3C//DTD SVG 1.1//EN"
 "http://www.w3.org/Graphics/SVG/1.1/DTD/svg11.dtd">
<!-- Generated by graphviz version 7.0.1 (20221109.1506)
 -->
<!-- Pages: 1 -->
<svg width="1317pt" height="548pt"
 viewBox="0.00 0.00 1316.97 548.00" xmlns="http://www.w3.org/2000/svg" xmlns:xlink="http://www.w3.org/1999/xlink">
<g id="graph0" class="graph" transform="scale(1 1) rotate(0) translate(4 544)">
<polygon fill="white" stroke="none" points="-4,4 -4,-544 1312.97,-544 1312.97,4 -4,4"/>
<!-- [root] local_file.input_data (expand) -->
<g id="node1" class="node">
<title>[root] local_file.input_data (expand)</title>
<polygon fill="none" stroke="black" points="462.84,-396 334.84,-396 334.84,-360 462.84,-360 462.84,-396"/>
<text text-anchor="middle" x="398.84" y="-374.3" font-family="Times,serif" font-size="14.00">local_file.input_data</text>
</g>
<!-- [root] provider[&quot;registry.terraform.io/hashicorp/local&quot;] -->
<g id="node2" class="node">
<title>[root] provider[&quot;registry.terraform.io/hashicorp/local&quot;]</title>
<polygon fill="none" stroke="black" points="285.84,-324 28.61,-306 285.84,-288 543.07,-306 285.84,-324"/>
<text text-anchor="middle" x="285.84" y="-302.3" font-family="Times,serif" font-size="14.00">provider[&quot;registry.terraform.io/hashicorp/local&quot;]</text>
</g>
<!-- [root] local_file.input_data (expand)&#45;&gt;[root] provider[&quot;registry.terraform.io/hashicorp/local&quot;] -->
<g id="edge5" class="edge">
<title>[root] local_file.input_data (expand)&#45;&gt;[root] provider[&quot;registry.terraform.io/hashicorp/local&quot;]</title>
<path fill="none" stroke="black" d="M370.62,-359.52C355.46,-350.13 336.64,-338.47 320.59,-328.53"/>
<polygon fill="black" stroke="black" points="322.64,-325.68 312.3,-323.39 318.95,-331.63 322.64,-325.68"/>
</g>
<!-- [root] local.file_content (expand) -->
<g id="node6" class="node">
<title>[root] local.file_content (expand)</title>
<ellipse fill="none" stroke="black" cx="688.84" cy="-306" rx="128.08" ry="18"/>
<text text-anchor="middle" x="688.84" y="-302.3" font-family="Times,serif" font-size="14.00">[root] local.file_content (expand)</text>
</g>
<!-- [root] local_file.input_data (expand)&#45;&gt;[root] local.file_content (expand) -->
<g id="edge4" class="edge">
<title>[root] local_file.input_data (expand)&#45;&gt;[root] local.file_content (expand)</title>
<path fill="none" stroke="black" d="M463.2,-361.46C508.15,-350.61 568.27,-336.1 615.15,-324.79"/>
<polygon fill="black" stroke="black" points="615.78,-328.23 624.68,-322.49 614.14,-321.43 615.78,-328.23"/>
</g>
<!-- [root] provider[&quot;registry.terraform.io/hashicorp/random&quot;] -->
<g id="node3" class="node">
<title>[root] provider[&quot;registry.terraform.io/hashicorp/random&quot;]</title>
<polygon fill="none" stroke="black" points="877.84,-36 605.7,-18 877.84,0 1149.98,-18 877.84,-36"/>
<text text-anchor="middle" x="877.84" y="-14.3" font-family="Times,serif" font-size="14.00">provider[&quot;registry.terraform.io/hashicorp/random&quot;]</text>
</g>
<!-- [root] random_integer.random_length (expand) -->
<g id="node4" class="node">
<title>[root] random_integer.random_length (expand)</title>
<polygon fill="none" stroke="black" points="971.84,-108 783.84,-108 783.84,-72 971.84,-72 971.84,-108"/>
<text text-anchor="middle" x="877.84" y="-86.3" font-family="Times,serif" font-size="14.00">random_integer.random_length</text>
</g>
<!-- [root] random_integer.random_length (expand)&#45;&gt;[root] provider[&quot;registry.terraform.io/hashicorp/random&quot;] -->
<g id="edge10" class="edge">
<title>[root] random_integer.random_length (expand)&#45;&gt;[root] provider[&quot;registry.terraform.io/hashicorp/random&quot;]</title>
<path fill="none" stroke="black" d="M877.84,-71.7C877.84,-64.41 877.84,-55.73 877.84,-47.54"/>
<polygon fill="black" stroke="black" points="881.34,-47.62 877.84,-37.62 874.34,-47.62 881.34,-47.62"/>
</g>
<!-- [root] random_string.random_string (expand) -->
<g id="node5" class="node">
<title>[root] random_string.random_string (expand)</title>
<polygon fill="none" stroke="black" points="967.34,-180 788.34,-180 788.34,-144 967.34,-144 967.34,-180"/>
<text text-anchor="middle" x="877.84" y="-158.3" font-family="Times,serif" font-size="14.00">random_string.random_string</text>
</g>
<!-- [root] random_string.random_string (expand)&#45;&gt;[root] random_integer.random_length (expand) -->
<g id="edge11" class="edge">
<title>[root] random_string.random_string (expand)&#45;&gt;[root] random_integer.random_length (expand)</title>
<path fill="none" stroke="black" d="M877.84,-143.7C877.84,-136.41 877.84,-127.73 877.84,-119.54"/>
<polygon fill="black" stroke="black" points="881.34,-119.62 877.84,-109.62 874.34,-119.62 881.34,-119.62"/>
</g>
<!-- [root] local.input_list (expand) -->
<g id="node7" class="node">
<title>[root] local.input_list (expand)</title>
<ellipse fill="none" stroke="black" cx="688.84" cy="-234" rx="119.68" ry="18"/>
<text text-anchor="middle" x="688.84" y="-230.3" font-family="Times,serif" font-size="14.00">[root] local.input_list (expand)</text>
</g>
<!-- [root] local.file_content (expand)&#45;&gt;[root] local.input_list (expand) -->
<g id="edge1" class="edge">
<title>[root] local.file_content (expand)&#45;&gt;[root] local.input_list (expand)</title>
<path fill="none" stroke="black" d="M688.84,-287.7C688.84,-280.41 688.84,-271.73 688.84,-263.54"/>
<polygon fill="black" stroke="black" points="692.34,-263.62 688.84,-253.62 685.34,-263.62 692.34,-263.62"/>
</g>
<!-- [root] local.input_list (expand)&#45;&gt;[root] random_string.random_string (expand) -->
<g id="edge3" class="edge">
<title>[root] local.input_list (expand)&#45;&gt;[root] random_string.random_string (expand)</title>
<path fill="none" stroke="black" d="M732.2,-216.94C758.29,-207.28 791.83,-194.86 820.14,-184.37"/>
<polygon fill="black" stroke="black" points="821.13,-187.74 829.29,-180.98 818.7,-181.17 821.13,-187.74"/>
</g>
<!-- [root] local.input_length (expand) -->
<g id="node8" class="node">
<title>[root] local.input_length (expand)</title>
<ellipse fill="none" stroke="black" cx="855.84" cy="-378" rx="130.78" ry="18"/>
<text text-anchor="middle" x="855.84" y="-374.3" font-family="Times,serif" font-size="14.00">[root] local.input_length (expand)</text>
</g>
<!-- [root] local.input_length (expand)&#45;&gt;[root] local.input_list (expand) -->
<g id="edge2" class="edge">
<title>[root] local.input_length (expand)&#45;&gt;[root] local.input_list (expand)</title>
<path fill="none" stroke="black" d="M854.36,-359.7C851.78,-339.94 844.78,-307.79 825.84,-288 810.52,-272 789.83,-260.75 769.17,-252.88"/>
<polygon fill="black" stroke="black" points="770.42,-249.61 759.83,-249.57 768.08,-256.2 770.42,-249.61"/>
</g>
<!-- [root] output.file_path (expand) -->
<g id="node9" class="node">
<title>[root] output.file_path (expand)</title>
<ellipse fill="none" stroke="black" cx="122.84" cy="-450" rx="122.68" ry="18"/>
<text text-anchor="middle" x="122.84" y="-446.3" font-family="Times,serif" font-size="14.00">[root] output.file_path (expand)</text>
</g>
<!-- [root] output.file_path (expand)&#45;&gt;[root] local_file.input_data (expand) -->
<g id="edge6" class="edge">
<title>[root] output.file_path (expand)&#45;&gt;[root] local_file.input_data (expand)</title>
<path fill="none" stroke="black" d="M182.39,-433.9C223.73,-423.41 279.14,-409.36 323.55,-398.1"/>
<polygon fill="black" stroke="black" points="324.29,-401.52 333.12,-395.67 322.57,-394.73 324.29,-401.52"/>
</g>
<!-- [root] output.lines_number (expand) -->
<g id="node10" class="node">
<title>[root] output.lines_number (expand)</title>
<ellipse fill="none" stroke="black" cx="882.84" cy="-450" rx="139.98" ry="18"/>
<text text-anchor="middle" x="882.84" y="-446.3" font-family="Times,serif" font-size="14.00">[root] output.lines_number (expand)</text>
</g>
<!-- [root] output.lines_number (expand)&#45;&gt;[root] local.input_length (expand) -->
<g id="edge7" class="edge">
<title>[root] output.lines_number (expand)&#45;&gt;[root] local.input_length (expand)</title>
<path fill="none" stroke="black" d="M876.16,-431.7C873.25,-424.15 869.77,-415.12 866.52,-406.68"/>
<polygon fill="black" stroke="black" points="869.85,-405.59 862.98,-397.52 863.31,-408.11 869.85,-405.59"/>
</g>
<!-- [root] provider[&quot;registry.terraform.io/hashicorp/local&quot;] (close) -->
<g id="node11" class="node">
<title>[root] provider[&quot;registry.terraform.io/hashicorp/local&quot;] (close)</title>
<ellipse fill="none" stroke="black" cx="494.84" cy="-450" rx="230.96" ry="18"/>
<text text-anchor="middle" x="494.84" y="-446.3" font-family="Times,serif" font-size="14.00">[root] provider[&quot;registry.terraform.io/hashicorp/local&quot;] (close)</text>
</g>
<!-- [root] provider[&quot;registry.terraform.io/hashicorp/local&quot;] (close)&#45;&gt;[root] local_file.input_data (expand) -->
<g id="edge8" class="edge">
<title>[root] provider[&quot;registry.terraform.io/hashicorp/local&quot;] (close)&#45;&gt;[root] local_file.input_data (expand)</title>
<path fill="none" stroke="black" d="M471.11,-431.7C459.22,-423.03 444.65,-412.4 431.7,-402.96"/>
<polygon fill="black" stroke="black" points="433.99,-400.3 423.85,-397.24 429.87,-405.96 433.99,-400.3"/>
</g>
<!-- [root] provider[&quot;registry.terraform.io/hashicorp/random&quot;] (close) -->
<g id="node12" class="node">
<title>[root] provider[&quot;registry.terraform.io/hashicorp/random&quot;] (close)</title>
<ellipse fill="none" stroke="black" cx="1067.84" cy="-234" rx="241.26" ry="18"/>
<text text-anchor="middle" x="1067.84" y="-230.3" font-family="Times,serif" font-size="14.00">[root] provider[&quot;registry.terraform.io/hashicorp/random&quot;] (close)</text>
</g>
<!-- [root] provider[&quot;registry.terraform.io/hashicorp/random&quot;] (close)&#45;&gt;[root] random_string.random_string (expand) -->
<g id="edge9" class="edge">
<title>[root] provider[&quot;registry.terraform.io/hashicorp/random&quot;] (close)&#45;&gt;[root] random_string.random_string (expand)</title>
<path fill="none" stroke="black" d="M1021.36,-215.88C995.56,-206.37 963.24,-194.46 935.8,-184.35"/>
<polygon fill="black" stroke="black" points="937.17,-181.13 926.58,-180.96 934.75,-187.7 937.17,-181.13"/>
</g>
<!-- [root] root -->
<g id="node13" class="node">
<title>[root] root</title>
<ellipse fill="none" stroke="black" cx="688.84" cy="-522" rx="47.39" ry="18"/>
<text text-anchor="middle" x="688.84" y="-518.3" font-family="Times,serif" font-size="14.00">[root] root</text>
</g>
<!-- [root] root&#45;&gt;[root] output.file_path (expand) -->
<g id="edge12" class="edge">
<title>[root] root&#45;&gt;[root] output.file_path (expand)</title>
<path fill="none" stroke="black" d="M644.16,-515.64C565.46,-506.18 397,-485.83 254.84,-468 244.82,-466.74 234.38,-465.42 223.95,-464.09"/>
<polygon fill="black" stroke="black" points="224.52,-460.63 214.15,-462.84 223.63,-467.58 224.52,-460.63"/>
</g>
<!-- [root] root&#45;&gt;[root] output.lines_number (expand) -->
<g id="edge13" class="edge">
<title>[root] root&#45;&gt;[root] output.lines_number (expand)</title>
<path fill="none" stroke="black" d="M722.19,-508.97C750.83,-498.63 792.73,-483.51 826.56,-471.31"/>
<polygon fill="black" stroke="black" points="827.59,-474.66 835.81,-467.97 825.21,-468.07 827.59,-474.66"/>
</g>
<!-- [root] root&#45;&gt;[root] provider[&quot;registry.terraform.io/hashicorp/local&quot;] (close) -->
<g id="edge14" class="edge">
<title>[root] root&#45;&gt;[root] provider[&quot;registry.terraform.io/hashicorp/local&quot;] (close)</title>
<path fill="none" stroke="black" d="M655.49,-508.97C627.24,-498.77 586.09,-483.93 552.51,-471.81"/>
<polygon fill="black" stroke="black" points="553.92,-468.6 543.32,-468.49 551.54,-475.18 553.92,-468.6"/>
</g>
<!-- [root] root&#45;&gt;[root] provider[&quot;registry.terraform.io/hashicorp/random&quot;] (close) -->
<g id="edge15" class="edge">
<title>[root] root&#45;&gt;[root] provider[&quot;registry.terraform.io/hashicorp/random&quot;] (close)</title>
<path fill="none" stroke="black" d="M736.41,-520.35C820.69,-518.14 991.2,-508.64 1031.84,-468 1086.4,-413.44 1080.13,-312.88 1073.03,-263.66"/>
<polygon fill="black" stroke="black" points="1076.49,-263.14 1071.48,-253.8 1069.57,-264.23 1076.49,-263.14"/>
</g>
</g>
</svg>
